<mxfile host="app.diagrams.net" modified="2023-08-18T18:30:14.098Z" agent="Mozilla/5.0 (Windows NT 10.0; Win64; x64) AppleWebKit/537.36 (KHTML, like Gecko) Chrome/116.0.0.0 Safari/537.36" etag="nIwMW2UnZWtP7BBekFrO" version="21.6.8" type="github">
  <diagram name="Page-1" id="zO1krM9RJwl2RXNE8Sop">
    <mxGraphModel dx="1347" dy="721" grid="1" gridSize="10" guides="1" tooltips="1" connect="1" arrows="1" fold="1" page="1" pageScale="1" pageWidth="827" pageHeight="1169" math="0" shadow="0">
      <root>
        <mxCell id="0" />
        <mxCell id="1" parent="0" />
        <mxCell id="PcngEi1xsUKJxS339LNE-2" value="Account" style="whiteSpace=wrap;html=1;align=center;" vertex="1" parent="1">
          <mxGeometry x="70" y="120" width="100" height="40" as="geometry" />
        </mxCell>
        <mxCell id="PcngEi1xsUKJxS339LNE-3" value="Username" style="ellipse;whiteSpace=wrap;html=1;align=center;fontStyle=4;" vertex="1" parent="1">
          <mxGeometry x="30" y="50" width="90" height="30" as="geometry" />
        </mxCell>
        <mxCell id="PcngEi1xsUKJxS339LNE-4" value="Password" style="ellipse;whiteSpace=wrap;html=1;align=center;" vertex="1" parent="1">
          <mxGeometry x="150" y="30" width="70" height="30" as="geometry" />
        </mxCell>
        <mxCell id="PcngEi1xsUKJxS339LNE-5" value="" style="endArrow=none;html=1;rounded=0;" edge="1" parent="1" source="PcngEi1xsUKJxS339LNE-3" target="PcngEi1xsUKJxS339LNE-2">
          <mxGeometry width="50" height="50" relative="1" as="geometry">
            <mxPoint x="390" y="670" as="sourcePoint" />
            <mxPoint x="440" y="620" as="targetPoint" />
          </mxGeometry>
        </mxCell>
        <mxCell id="PcngEi1xsUKJxS339LNE-6" value="" style="endArrow=none;html=1;rounded=0;" edge="1" parent="1" source="PcngEi1xsUKJxS339LNE-4" target="PcngEi1xsUKJxS339LNE-2">
          <mxGeometry width="50" height="50" relative="1" as="geometry">
            <mxPoint x="124" y="89" as="sourcePoint" />
            <mxPoint x="175" y="160" as="targetPoint" />
          </mxGeometry>
        </mxCell>
        <mxCell id="PcngEi1xsUKJxS339LNE-7" value="Employee" style="whiteSpace=wrap;html=1;align=center;" vertex="1" parent="1">
          <mxGeometry x="560" y="120" width="100" height="40" as="geometry" />
        </mxCell>
        <mxCell id="PcngEi1xsUKJxS339LNE-8" value="Janitor" style="whiteSpace=wrap;html=1;align=center;" vertex="1" parent="1">
          <mxGeometry x="450" y="320" width="100" height="40" as="geometry" />
        </mxCell>
        <mxCell id="PcngEi1xsUKJxS339LNE-9" value="Collector" style="whiteSpace=wrap;html=1;align=center;" vertex="1" parent="1">
          <mxGeometry x="690" y="320" width="100" height="40" as="geometry" />
        </mxCell>
        <mxCell id="PcngEi1xsUKJxS339LNE-11" value="d" style="ellipse;whiteSpace=wrap;html=1;aspect=fixed;" vertex="1" parent="1">
          <mxGeometry x="600" y="240" width="20" height="20" as="geometry" />
        </mxCell>
        <mxCell id="PcngEi1xsUKJxS339LNE-12" value="" style="shape=link;html=1;rounded=0;" edge="1" parent="1" source="PcngEi1xsUKJxS339LNE-11" target="PcngEi1xsUKJxS339LNE-7">
          <mxGeometry relative="1" as="geometry">
            <mxPoint x="470" y="370" as="sourcePoint" />
            <mxPoint x="630" y="370" as="targetPoint" />
          </mxGeometry>
        </mxCell>
        <mxCell id="PcngEi1xsUKJxS339LNE-14" value="" style="endArrow=none;html=1;rounded=0;" edge="1" parent="1" source="PcngEi1xsUKJxS339LNE-11" target="PcngEi1xsUKJxS339LNE-8">
          <mxGeometry width="50" height="50" relative="1" as="geometry">
            <mxPoint x="193" y="79" as="sourcePoint" />
            <mxPoint x="148" y="130" as="targetPoint" />
          </mxGeometry>
        </mxCell>
        <mxCell id="PcngEi1xsUKJxS339LNE-15" value="" style="endArrow=none;html=1;rounded=0;" edge="1" parent="1" source="PcngEi1xsUKJxS339LNE-11" target="PcngEi1xsUKJxS339LNE-9">
          <mxGeometry width="50" height="50" relative="1" as="geometry">
            <mxPoint x="611" y="265" as="sourcePoint" />
            <mxPoint x="488" y="330" as="targetPoint" />
          </mxGeometry>
        </mxCell>
        <mxCell id="PcngEi1xsUKJxS339LNE-16" value="ID" style="ellipse;whiteSpace=wrap;html=1;align=center;fontStyle=4;" vertex="1" parent="1">
          <mxGeometry x="480" y="60" width="60" height="30" as="geometry" />
        </mxCell>
        <mxCell id="PcngEi1xsUKJxS339LNE-17" value="Name" style="ellipse;whiteSpace=wrap;html=1;align=center;" vertex="1" parent="1">
          <mxGeometry x="530" y="35" width="60" height="30" as="geometry" />
        </mxCell>
        <mxCell id="PcngEi1xsUKJxS339LNE-18" value="SSN" style="ellipse;whiteSpace=wrap;html=1;align=center;" vertex="1" parent="1">
          <mxGeometry x="600" y="30" width="50" height="30" as="geometry" />
        </mxCell>
        <mxCell id="PcngEi1xsUKJxS339LNE-19" value="Email" style="ellipse;whiteSpace=wrap;html=1;align=center;" vertex="1" parent="1">
          <mxGeometry x="650" y="40" width="50" height="30" as="geometry" />
        </mxCell>
        <mxCell id="PcngEi1xsUKJxS339LNE-20" value="DoB" style="ellipse;whiteSpace=wrap;html=1;align=center;" vertex="1" parent="1">
          <mxGeometry x="702.5" y="50" width="50" height="30" as="geometry" />
        </mxCell>
        <mxCell id="PcngEi1xsUKJxS339LNE-21" value="Gender" style="ellipse;whiteSpace=wrap;html=1;align=center;" vertex="1" parent="1">
          <mxGeometry x="705" y="90" width="50" height="30" as="geometry" />
        </mxCell>
        <mxCell id="PcngEi1xsUKJxS339LNE-22" value="Phone number" style="ellipse;whiteSpace=wrap;html=1;align=center;" vertex="1" parent="1">
          <mxGeometry x="715" y="130" width="95" height="30" as="geometry" />
        </mxCell>
        <mxCell id="PcngEi1xsUKJxS339LNE-25" value="Address" style="ellipse;whiteSpace=wrap;html=1;align=center;" vertex="1" parent="1">
          <mxGeometry x="700" y="180" width="55" height="30" as="geometry" />
        </mxCell>
        <mxCell id="PcngEi1xsUKJxS339LNE-26" value="Image" style="ellipse;whiteSpace=wrap;html=1;align=center;" vertex="1" parent="1">
          <mxGeometry x="460" y="110" width="55" height="30" as="geometry" />
        </mxCell>
        <mxCell id="PcngEi1xsUKJxS339LNE-27" value="" style="endArrow=none;html=1;rounded=0;" edge="1" parent="1" source="PcngEi1xsUKJxS339LNE-7" target="PcngEi1xsUKJxS339LNE-16">
          <mxGeometry width="50" height="50" relative="1" as="geometry">
            <mxPoint x="520" y="390" as="sourcePoint" />
            <mxPoint x="570" y="340" as="targetPoint" />
          </mxGeometry>
        </mxCell>
        <mxCell id="PcngEi1xsUKJxS339LNE-29" value="" style="endArrow=none;html=1;rounded=0;" edge="1" parent="1" source="PcngEi1xsUKJxS339LNE-7" target="PcngEi1xsUKJxS339LNE-26">
          <mxGeometry width="50" height="50" relative="1" as="geometry">
            <mxPoint x="589" y="130" as="sourcePoint" />
            <mxPoint x="538" y="97" as="targetPoint" />
          </mxGeometry>
        </mxCell>
        <mxCell id="PcngEi1xsUKJxS339LNE-30" value="" style="endArrow=none;html=1;rounded=0;" edge="1" parent="1" source="PcngEi1xsUKJxS339LNE-7" target="PcngEi1xsUKJxS339LNE-17">
          <mxGeometry width="50" height="50" relative="1" as="geometry">
            <mxPoint x="570" y="144" as="sourcePoint" />
            <mxPoint x="524" y="138" as="targetPoint" />
          </mxGeometry>
        </mxCell>
        <mxCell id="PcngEi1xsUKJxS339LNE-31" value="" style="endArrow=none;html=1;rounded=0;" edge="1" parent="1" source="PcngEi1xsUKJxS339LNE-7" target="PcngEi1xsUKJxS339LNE-18">
          <mxGeometry width="50" height="50" relative="1" as="geometry">
            <mxPoint x="609" y="130" as="sourcePoint" />
            <mxPoint x="578" y="74" as="targetPoint" />
          </mxGeometry>
        </mxCell>
        <mxCell id="PcngEi1xsUKJxS339LNE-32" value="" style="endArrow=none;html=1;rounded=0;" edge="1" parent="1" source="PcngEi1xsUKJxS339LNE-7" target="PcngEi1xsUKJxS339LNE-19">
          <mxGeometry width="50" height="50" relative="1" as="geometry">
            <mxPoint x="623" y="130" as="sourcePoint" />
            <mxPoint x="633" y="70" as="targetPoint" />
          </mxGeometry>
        </mxCell>
        <mxCell id="PcngEi1xsUKJxS339LNE-33" value="" style="endArrow=none;html=1;rounded=0;" edge="1" parent="1" source="PcngEi1xsUKJxS339LNE-7" target="PcngEi1xsUKJxS339LNE-20">
          <mxGeometry width="50" height="50" relative="1" as="geometry">
            <mxPoint x="635" y="130" as="sourcePoint" />
            <mxPoint x="675" y="79" as="targetPoint" />
          </mxGeometry>
        </mxCell>
        <mxCell id="PcngEi1xsUKJxS339LNE-34" value="" style="endArrow=none;html=1;rounded=0;" edge="1" parent="1" source="PcngEi1xsUKJxS339LNE-7" target="PcngEi1xsUKJxS339LNE-21">
          <mxGeometry width="50" height="50" relative="1" as="geometry">
            <mxPoint x="649" y="130" as="sourcePoint" />
            <mxPoint x="734" y="71" as="targetPoint" />
          </mxGeometry>
        </mxCell>
        <mxCell id="PcngEi1xsUKJxS339LNE-35" value="" style="endArrow=none;html=1;rounded=0;" edge="1" parent="1" source="PcngEi1xsUKJxS339LNE-7" target="PcngEi1xsUKJxS339LNE-22">
          <mxGeometry width="50" height="50" relative="1" as="geometry">
            <mxPoint x="662" y="130" as="sourcePoint" />
            <mxPoint x="715" y="104" as="targetPoint" />
          </mxGeometry>
        </mxCell>
        <mxCell id="PcngEi1xsUKJxS339LNE-36" value="" style="endArrow=none;html=1;rounded=0;" edge="1" parent="1" source="PcngEi1xsUKJxS339LNE-7" target="PcngEi1xsUKJxS339LNE-25">
          <mxGeometry width="50" height="50" relative="1" as="geometry">
            <mxPoint x="670" y="145" as="sourcePoint" />
            <mxPoint x="727" y="139" as="targetPoint" />
          </mxGeometry>
        </mxCell>
      </root>
    </mxGraphModel>
  </diagram>
</mxfile>
